# Blender v2.83.2 OBJ File: ''
# www.blender.org
mtllib tree.mtl
o Cylinder
v 0.000000 0.000000 -0.350000
v -0.000000 0.650000 -0.175000
v 0.247487 0.000000 -0.247487
v 0.123744 0.650000 -0.123744
v 0.350000 0.000000 0.000000
v 0.175000 0.650000 0.000000
v 0.247487 0.000000 0.247487
v 0.123744 0.650000 0.123744
v -0.000000 0.000000 0.350000
v -0.000000 0.650000 0.175000
v -0.247487 0.000000 0.247487
v -0.123744 0.650000 0.123744
v -0.350000 0.000000 -0.000000
v -0.175000 0.650000 -0.000000
v -0.247487 0.000000 -0.247487
v -0.123744 0.650000 -0.123744
v 0.185616 1.500000 -0.185616
v -0.000000 1.500000 -0.262500
v 0.262500 1.500000 0.000000
v 0.185616 1.500000 0.185616
v -0.000000 1.500000 0.262500
v -0.185616 1.500000 0.185616
v -0.262500 1.500000 -0.000000
v -0.185616 1.500000 -0.185615
vt 1.000000 0.500000
vt 1.000000 1.000000
vt 0.875000 1.000000
vt 0.875000 0.500000
vt 0.750000 1.000000
vt 0.750000 0.500000
vt 0.625000 1.000000
vt 0.625000 0.500000
vt 0.500000 1.000000
vt 0.500000 0.500000
vt 0.375000 1.000000
vt 0.375000 0.500000
vt 0.250000 1.000000
vt 0.250000 0.500000
vt 0.375000 1.000000
vt 0.250000 1.000000
vt 0.125000 1.000000
vt 0.125000 0.500000
vt 0.000000 1.000000
vt 0.000000 0.500000
vt 0.750000 0.490000
vt 0.919706 0.419706
vt 0.990000 0.250000
vt 0.919706 0.080294
vt 0.750000 0.010000
vt 0.580294 0.080294
vt 0.510000 0.250000
vt 0.580294 0.419706
vt 0.419706 0.419706
vt 0.250000 0.490000
vt 0.080294 0.419706
vt 0.010000 0.250000
vt 0.080294 0.080294
vt 0.250000 0.010000
vt 0.419706 0.080294
vt 0.490000 0.250000
vt 0.625000 1.000000
vt 0.500000 1.000000
vt 0.125000 1.000000
vt 0.875000 1.000000
vt 0.750000 1.000000
vt 0.000000 1.000000
vt 1.000000 1.000000
vn 0.3714 0.2414 -0.8966
vn 0.8966 0.2414 -0.3714
vn 0.8966 0.2414 0.3714
vn 0.3714 0.2414 0.8966
vn -0.3714 0.2414 0.8966
vn -0.8966 0.2414 0.3714
vn -0.9197 -0.0947 0.3810
vn -0.8966 0.2414 -0.3714
vn -0.3714 0.2414 -0.8966
vn 0.0000 -1.0000 0.0000
vn 0.0000 1.0000 0.0000
vn 0.3810 -0.0947 0.9197
vn -0.9197 -0.0947 -0.3810
vn 0.9197 -0.0947 -0.3810
vn -0.3810 -0.0947 0.9197
vn -0.3810 -0.0947 -0.9197
vn 0.3810 -0.0947 -0.9197
vn 0.9197 -0.0947 0.3810
usemtl Material.001
s off
f 1/1/1 2/2/1 4/3/1 3/4/1
f 3/4/2 4/3/2 6/5/2 5/6/2
f 5/6/3 6/5/3 8/7/3 7/8/3
f 7/8/4 8/7/4 10/9/4 9/10/4
f 9/10/5 10/9/5 12/11/5 11/12/5
f 11/12/6 12/11/6 14/13/6 13/14/6
f 14/13/7 12/11/7 22/15/7 23/16/7
f 13/14/8 14/13/8 16/17/8 15/18/8
f 15/18/9 16/17/9 2/19/9 1/20/9
f 1/21/10 3/22/10 5/23/10 7/24/10 9/25/10 11/26/10 13/27/10 15/28/10
f 17/29/11 18/30/11 24/31/11 23/32/11 22/33/11 21/34/11 20/35/11 19/36/11
f 10/9/12 8/7/12 20/37/12 21/38/12
f 16/17/13 14/13/13 23/16/13 24/39/13
f 6/5/14 4/3/14 17/40/14 19/41/14
f 12/11/15 10/9/15 21/38/15 22/15/15
f 2/19/16 16/17/16 24/39/16 18/42/16
f 4/3/17 2/2/17 18/43/17 17/40/17
f 8/7/18 6/5/18 19/41/18 20/37/18
o Cone
v 0.000000 1.000000 -1.000000
v 0.707107 1.000000 -0.707107
v 1.000000 1.000000 0.000000
v 0.707107 1.000000 0.707107
v -0.000000 1.000000 1.000000
v -0.707107 1.000000 0.707107
v -1.000000 1.000000 -0.000000
v -0.707107 1.000000 -0.707107
v 0.000000 3.000000 0.000000
vt 0.250000 0.490000
vt 0.250000 0.250000
vt 0.419706 0.419706
vt 0.490000 0.250000
vt 0.419706 0.080294
vt 0.250000 0.010000
vt 0.080294 0.080294
vt 0.010000 0.250000
vt 0.080294 0.419706
vt 0.750000 0.490000
vt 0.919706 0.419706
vt 0.990000 0.250000
vt 0.919706 0.080294
vt 0.750000 0.010000
vt 0.580294 0.080294
vt 0.510000 0.250000
vt 0.580294 0.419706
vn 0.3474 0.4194 -0.8387
vn 0.8387 0.4194 -0.3474
vn 0.8387 0.4194 0.3474
vn 0.3474 0.4194 0.8387
vn -0.3474 0.4194 0.8387
vn -0.8387 0.4194 0.3474
vn -0.8387 0.4194 -0.3474
vn -0.3474 0.4194 -0.8387
vn 0.0000 -1.0000 0.0000
usemtl Material.002
s off
f 25/44/19 33/45/19 26/46/19
f 26/46/20 33/45/20 27/47/20
f 27/47/21 33/45/21 28/48/21
f 28/48/22 33/45/22 29/49/22
f 29/49/23 33/45/23 30/50/23
f 30/50/24 33/45/24 31/51/24
f 31/51/25 33/45/25 32/52/25
f 32/52/26 33/45/26 25/44/26
f 25/53/27 26/54/27 27/55/27 28/56/27 29/57/27 30/58/27 31/59/27 32/60/27
