# Blender v2.79 (sub 0) OBJ File: 'Revolver.blend'
# www.blender.org
mtllib Revolver.mtl
o Cube
v 0.114016 -0.629393 -1.506896
v 0.109098 -0.124388 -1.352220
v 0.114873 -0.628083 -0.931993
v 0.098089 -0.174117 -0.965228
v 0.104543 0.261916 -1.095158
v 0.109311 0.385924 -1.058632
v 0.112285 -0.013500 -0.704989
v 0.109627 0.670602 -0.611651
v 0.099139 0.158026 -0.603241
v 0.091974 0.635166 0.113237
v 0.115529 0.172753 -0.055638
v 0.093115 0.506500 0.060445
v 0.096830 0.641203 1.333540
v 0.096455 0.500675 1.333540
v 0.109470 0.425552 -0.770713
v 0.109627 0.578553 -0.499687
v 0.099139 0.212775 -0.494044
v 0.091974 0.560500 -0.013305
v 0.115529 0.222661 -0.078588
v 0.198485 0.377559 -0.496586
v 0.198372 0.391580 -0.045946
v 0.055918 0.493943 -0.741593
v 0.065486 0.553447 -0.682677
v 0.070774 0.485960 -0.811678
v 0.065486 0.664089 -0.960194
v 0.070774 0.423176 -0.786953
v 0.059856 0.455929 -0.713540
v 0.070774 0.422180 -0.881727
v 0.070774 0.391399 -0.832177
v -0.114015 -0.629393 -1.506896
v -0.109097 -0.124388 -1.352220
v -0.114872 -0.628083 -0.931993
v -0.098089 -0.174117 -0.965228
v -0.104543 0.261916 -1.095158
v -0.109312 0.385924 -1.058632
v -0.112285 -0.013501 -0.704989
v -0.109627 0.670602 -0.611651
v -0.099139 0.158026 -0.603241
v -0.091975 0.635166 0.113237
v -0.000000 0.655351 0.139139
v -0.115529 0.172753 -0.055638
v -0.093115 0.506500 0.060445
v -0.000000 0.471497 0.076417
v -0.000000 0.671031 1.333540
v -0.096831 0.641203 1.333540
v -0.096455 0.500675 1.333540
v -0.000000 0.463141 1.333540
v -0.109470 0.425552 -0.770713
v -0.109627 0.578553 -0.499687
v -0.099139 0.212775 -0.494044
v -0.091975 0.560500 -0.013305
v -0.115529 0.222661 -0.078588
v -0.198485 0.377558 -0.496586
v -0.198373 0.391580 -0.045946
v -0.055918 0.493943 -0.741593
v -0.065486 0.553447 -0.682677
v -0.070774 0.485960 -0.811678
v -0.065486 0.664089 -0.960194
v -0.070774 0.423176 -0.786953
v -0.059857 0.455928 -0.713540
v -0.070774 0.422180 -0.881727
v -0.070774 0.391398 -0.832177
v 0.079322 -0.039389 -0.736524
v 0.070812 0.009315 -0.700919
v -0.066046 -0.039389 -0.736524
v -0.057537 0.009315 -0.700919
v 0.062516 -0.028083 -0.401427
v 0.055974 0.008791 -0.429561
v -0.049241 -0.028083 -0.401427
v -0.042698 0.008791 -0.429561
v 0.062516 0.168618 -0.374251
v 0.055974 0.165591 -0.420533
v -0.049241 0.168619 -0.374251
v -0.042698 0.165591 -0.420533
v 0.062516 0.177096 -0.594265
v 0.055974 0.157114 -0.608865
v -0.049241 0.177096 -0.594265
v -0.042698 0.157114 -0.608865
v 0.062516 0.097689 -0.556697
v 0.055974 0.077708 -0.571297
v -0.049241 0.097689 -0.556697
v -0.042698 0.077708 -0.571297
v 0.062516 0.051806 -0.500423
v 0.055974 0.031825 -0.515023
v -0.049241 0.051806 -0.500423
v -0.042698 0.031825 -0.515023
vt 0.0118 0.5031
vt 0.8006 0.9561
vt 0.8059 0.0672
vt 0.0118 0.5031
vt 0.8059 0.0672
vt 0.8006 0.9561
vt 0.0118 0.5031
vt 0.8059 0.0672
vt 0.8006 0.9561
vt 0.0118 0.5031
vt 0.8006 0.9561
vt 0.8059 0.0672
vt -1.1003 5.1701
vt 1.0263 9.7154
vt -0.9327 9.7154
vt -1.0918 -0.5707
vt 1.1939 5.1701
vt -1.0426 -5.8447
vt 1.0907 -10.4783
vt 1.1362 -5.8447
vt 3.4006 0.3713
vt -1.5043 -5.5078
vt 5.2059 -5.5230
vt -1.0745 12.7692
vt -1.0448 -11.7692
vt -0.9972 -10.4783
vt 0.4002 4.8802
vt -4.1538 1.6656
vt -1.1164 -0.2091
vt 3.4006 0.3713
vt -1.5043 -5.5078
vt -1.1164 -0.2091
vt -4.1538 1.6656
vt -0.0262 6.3276
vt 0.4002 4.8802
vt 1.1853 -0.5707
vt 1.1680 12.7692
vt 1.1383 -11.7692
vt -0.0262 6.3276
vt 5.2059 -5.5230
vt 1.8748 0.5396
vt 2.3417 0.4753
vt 2.3417 0.4753
vt 1.6032 0.0533
vt 1.7682 -0.1724
vt 1.6032 0.0533
vt 0.5992 0.0772
vt 1.6169 0.9370
vt 0.4414 0.8795
vt 0.5992 0.0772
vt 0.3994 0.9122
vt 1.6169 0.9370
vt 0.4558 0.6141
vt -1.5166 0.6614
vt -1.5579 0.6005
vt 0.4817 0.6709
vt -1.5308 0.8893
vt 1.8276 0.6505
vt 2.1821 0.9264
vt 1.8276 0.6505
vt -1.2615 -0.0170
vt 1.7243 1.0894
vt -1.2434 1.1600
vt 1.9574 -0.1172
vt -1.2837 -1.4528
vt 2.1906 -1.3238
vt 1.8748 0.5396
vt 1.7321 0.7470
vt 1.7321 0.7470
vt 2.1821 0.9264
vt 1.9412 0.6375
vt 1.9412 0.6375
vt 1.9012 0.5357
vt 1.9745 0.4842
vt 2.0548 0.5341
vt 0.4414 0.8795
vt -1.5166 0.6614
vt 0.4817 0.6709
vt -1.5308 0.8893
vt 1.7243 1.0894
vt -1.2615 -0.0170
vt -1.2434 1.1600
vt 1.9574 -0.1172
vt -1.2837 -1.4528
vt 1.9012 0.5357
vt 1.7821 0.5889
vt 1.9745 0.4842
vt 1.7682 -0.1724
vt 1.6032 0.0533
vt 1.6032 0.0533
vt 1.6032 0.0533
vt 1.6032 0.0533
vt 1.6032 0.0533
vt 1.7682 -0.1724
vt 1.7682 -0.1724
vt 1.7682 -0.1724
vt 1.7682 -0.1724
vt 1.7682 -0.1724
vt 1.6032 0.0533
vt 1.6032 0.0533
vt 1.7682 -0.1724
vt 1.6032 0.0533
vt 1.6032 0.0533
vt 1.6032 0.0533
vt 1.6032 0.0533
vt 1.7682 -0.1724
vt 1.7682 -0.1724
vt 1.7682 -0.1724
vt 1.7682 -0.1724
vt 1.7682 -0.1724
vt 1.6032 0.0533
vt 1.7682 -0.1724
vt -1.5720 0.9377
vt 1.7821 0.5889
vt 2.0548 0.5341
vt 2.1906 -1.3238
vn 0.7821 -0.0537 -0.6207
vn 0.8051 -0.4905 -0.3333
vn 0.8664 0.4173 -0.2744
vn 0.7839 -0.0401 0.6195
vn 0.8164 0.4426 0.3708
vn 0.8318 -0.4837 0.2721
vn -0.7821 -0.0537 -0.6207
vn -0.8664 0.4173 -0.2744
vn -0.8051 -0.4906 -0.3333
vn -0.7839 -0.0401 0.6195
vn -0.8318 -0.4837 0.2721
vn -0.8164 0.4426 0.3708
vn -0.5799 -0.5506 0.6005
vn 0.8354 -0.2433 0.4929
vn -0.8354 -0.2433 0.4929
vn -0.5654 -0.4902 -0.6633
vn 0.5799 -0.5506 0.6005
vn -0.6800 0.3244 -0.6575
vn 0.7331 0.2676 -0.6252
vn 0.6800 0.3244 -0.6575
vn 0.5654 -0.4902 -0.6633
vn -0.6676 -0.5238 0.5290
vn -0.6057 0.5982 -0.5246
vn -0.7331 0.2676 -0.6252
vn 0.6676 -0.5238 0.5290
vn 0.6057 0.5982 -0.5246
vn -0.8203 0.4902 -0.2946
vn -0.8166 -0.4812 0.3186
vn 0.8166 -0.4812 0.3186
vn 0.6151 -0.6435 0.4555
vn 0.6164 0.6959 -0.3683
vn 0.8065 0.4735 0.3540
vn -0.6151 -0.6435 0.4555
vn 0.0000 0.9057 0.4238
vn -0.6164 0.6959 -0.3683
vn 0.0000 -1.0000 -0.0056
vn 0.8242 -0.5662 -0.0060
vn 0.0000 -1.0000 -0.0066
vn 0.7887 -0.6147 -0.0049
vn 0.8036 0.5950 -0.0101
vn -0.9550 0.1456 -0.2582
vn 0.5467 0.4155 -0.7269
vn 0.9550 0.1456 -0.2582
vn 0.8203 0.4902 -0.2946
vn 0.6321 0.7198 0.2870
vn -0.6321 0.7198 0.2870
vn -0.5467 0.4155 -0.7269
vn 0.6667 0.7005 -0.2545
vn -0.6667 0.7005 -0.2545
vn 0.9963 0.0498 0.0702
vn 1.0000 0.0000 0.0000
vn -0.6359 0.5706 -0.5195
vn -0.8065 0.4735 0.3540
vn -0.8242 -0.5662 -0.0060
vn -0.7887 -0.6147 -0.0049
vn -0.8036 0.5950 -0.0101
vn -0.9963 0.0498 0.0702
vn -0.9845 0.1580 0.0759
vn -1.0000 0.0000 0.0000
vn 0.5994 -0.3671 -0.7113
vn -0.5723 0.7479 -0.3362
vn 0.5723 0.7479 -0.3362
vn -0.8386 0.4161 -0.3516
vn 0.5362 0.5796 -0.6136
vn 0.8386 0.4161 -0.3516
vn 0.6165 -0.5761 0.5367
vn -0.6165 -0.5761 0.5367
vn -0.5994 -0.3671 -0.7113
vn -0.6103 0.5528 0.5673
vn 0.6103 0.5528 0.5673
vn -0.5362 0.5796 -0.6136
vn -0.4964 -0.0391 0.8672
vn 0.6223 -0.7814 -0.0454
vn 0.4964 -0.0391 0.8672
vn 0.5690 0.5108 0.6444
vn -0.4906 0.8677 -0.0797
vn -0.5690 0.5108 0.6444
vn -0.8520 -0.3314 -0.4052
vn -0.6223 -0.7814 -0.0454
vn 0.8520 -0.3314 -0.4052
vn 0.6581 -0.0510 -0.7512
vn -0.6581 -0.0510 -0.7512
vn 0.4906 0.8677 -0.0797
vn 0.0000 0.9999 -0.0131
vn 0.9845 0.1580 0.0759
vn 0.6359 0.5706 -0.5195
usemtl None
s 1
f 20/1/1 17/2/2 16/3/3
f 21/4/4 18/5/5 19/6/6
f 53/7/7 49/8/8 50/9/9
f 54/10/10 52/11/11 51/12/12
usemtl None_grip.png
f 32/13/13 4/14/14 33/15/15
f 30/16/16 3/17/17 32/13/13
f 31/18/18 5/19/19 2/20/20
f 2/21/20 3/22/17 1/23/21
f 4/14/14 36/24/22 33/15/15
f 35/25/23 5/19/19 34/26/24
f 5/27/19 7/28/25 4/29/14
f 31/30/18 32/31/13 33/32/15
f 36/33/22 35/34/23 34/35/24
f 31/18/18 1/36/21 30/16/16
f 32/13/13 3/17/17 4/14/14
f 30/16/16 1/36/21 3/17/17
f 31/18/18 34/26/24 5/19/19
f 2/21/20 4/29/14 3/22/17
f 4/14/14 7/37/25 36/24/22
f 35/25/23 6/38/26 5/19/19
f 4/29/14 2/21/20 5/27/19
f 5/27/19 6/39/26 7/28/25
f 31/30/18 30/40/16 32/31/13
f 34/35/24 31/30/18 33/32/15
f 33/32/15 36/33/22 34/35/24
f 31/18/18 2/20/20 1/36/21
usemtl None_shinymetal.png
f 48/41/27 6/42/26 35/43/23
f 38/44/28 7/45/25 9/46/29
f 11/47/30 8/48/31 10/49/32
f 41/50/33 11/47/30 40/51/34
f 10/49/32 40/51/34 11/47/30
f 10/49/32 8/48/31 40/51/34
f 8/48/31 37/52/35 40/51/34
f 43/53/36 14/54/37 47/55/38
f 10/49/32 14/54/37 12/56/39
f 40/51/34 13/57/40 10/49/32
f 55/58/41 25/59/42 22/60/43
f 20/61/1 19/62/6 17/63/2
f 21/64/4 16/65/3 18/66/5
f 15/67/44 9/46/29 7/45/25
f 23/68/45 22/60/43 25/59/42
f 56/69/46 25/59/42 58/70/47
f 55/58/41 24/71/48 57/72/49
f 22/60/43 26/73/50 24/71/48
f 29/74/51 24/71/48 26/73/50
f 24/71/48 61/75/52 57/72/49
f 41/50/33 37/52/35 38/44/28
f 39/76/53 41/50/33 40/51/34
f 37/52/35 39/76/53 40/51/34
f 43/53/36 46/77/54 42/78/55
f 46/77/54 39/76/53 42/78/55
f 45/79/56 40/51/34 39/76/53
f 52/80/11 53/81/7 50/82/9
f 54/83/10 49/84/8 53/81/7
f 38/44/28 37/52/35 48/41/27
f 56/69/46 58/70/47 55/58/41
f 55/58/41 59/85/57 60/86/58
f 57/72/49 62/87/59 59/85/57
f 37/52/35 15/67/44 48/41/27
f 41/50/33 9/46/29 11/47/30
f 63/88/60 66/89/61 64/90/62
f 70/91/63 72/92/64 68/93/65
f 66/89/61 68/93/65 64/90/62
f 64/90/62 67/94/66 63/88/60
f 66/89/61 69/95/67 70/91/63
f 65/96/68 67/94/66 69/95/67
f 72/92/64 73/97/69 71/98/70
f 68/93/65 71/98/70 67/94/66
f 70/91/63 73/97/69 74/99/71
f 69/95/67 71/98/70 73/97/69
f 76/100/72 77/101/73 78/102/74
f 82/103/75 84/104/76 80/105/77
f 78/102/74 80/105/77 76/100/72
f 76/100/72 79/106/78 75/107/79
f 78/102/74 81/108/80 82/103/75
f 75/107/79 81/108/80 77/101/73
f 84/104/76 85/109/81 83/110/82
f 80/105/77 83/110/82 79/106/78
f 82/103/75 85/109/81 86/111/83
f 79/106/78 85/109/81 81/108/80
f 48/41/27 15/67/44 6/42/26
f 38/44/28 36/112/22 7/45/25
f 11/47/30 9/46/29 8/48/31
f 43/53/36 12/56/39 14/54/37
f 10/49/32 13/57/40 14/54/37
f 40/51/34 44/113/84 13/57/40
f 55/58/41 58/70/47 25/59/42
f 20/61/1 21/64/4 19/62/6
f 21/64/4 20/61/1 16/65/3
f 7/45/25 6/42/26 15/67/44
f 15/67/44 8/48/31 9/46/29
f 56/69/46 23/68/45 25/59/42
f 55/58/41 22/60/43 24/71/48
f 22/60/43 27/114/85 26/73/50
f 29/74/51 28/115/86 24/71/48
f 24/71/48 28/115/86 61/75/52
f 41/50/33 39/76/53 37/52/35
f 43/53/36 47/55/38 46/77/54
f 46/77/54 45/79/56 39/76/53
f 45/79/56 44/113/84 40/51/34
f 52/80/11 54/83/10 53/81/7
f 54/83/10 51/116/12 49/84/8
f 48/41/27 35/43/23 36/112/22
f 36/112/22 38/44/28 48/41/27
f 55/58/41 57/72/49 59/85/57
f 57/72/49 61/75/52 62/87/59
f 37/52/35 8/48/31 15/67/44
f 41/50/33 38/44/28 9/46/29
f 63/88/60 65/96/68 66/89/61
f 70/91/63 74/99/71 72/92/64
f 66/89/61 70/91/63 68/93/65
f 64/90/62 68/93/65 67/94/66
f 66/89/61 65/96/68 69/95/67
f 65/96/68 63/88/60 67/94/66
f 72/92/64 74/99/71 73/97/69
f 68/93/65 72/92/64 71/98/70
f 70/91/63 69/95/67 73/97/69
f 69/95/67 67/94/66 71/98/70
f 76/100/72 75/107/79 77/101/73
f 82/103/75 86/111/83 84/104/76
f 78/102/74 82/103/75 80/105/77
f 76/100/72 80/105/77 79/106/78
f 78/102/74 77/101/73 81/108/80
f 75/107/79 79/106/78 81/108/80
f 84/104/76 86/111/83 85/109/81
f 80/105/77 84/104/76 83/110/82
f 82/103/75 81/108/80 85/109/81
f 79/106/78 83/110/82 85/109/81
